<mxfile host="app.diagrams.net" agent="Mozilla/5.0 (Macintosh; Intel Mac OS X 10_15_7) AppleWebKit/537.36 (KHTML, like Gecko) Chrome/127.0.0.0 Safari/537.36" version="24.7.6">
  <diagram name="Page-1" id="2yFOmaOPS5uW6P_-l7d1">
    <mxGraphModel dx="4368" dy="2750" grid="1" gridSize="10" guides="1" tooltips="1" connect="1" arrows="1" fold="1" page="1" pageScale="1" pageWidth="1920" pageHeight="1200" math="0" shadow="0">
      <root>
        <mxCell id="0" />
        <mxCell id="1" parent="0" />
        <mxCell id="UCEMCd99DlRj_nNGnzx5-1" value="Match" style="swimlane;fontStyle=0;childLayout=stackLayout;horizontal=1;startSize=26;fillColor=none;horizontalStack=0;resizeParent=1;resizeParentMax=0;resizeLast=0;collapsible=1;marginBottom=0;whiteSpace=wrap;html=1;" vertex="1" parent="1">
          <mxGeometry x="-1820" y="-817" width="160" height="210" as="geometry">
            <mxRectangle x="-1550" y="410" width="70" height="30" as="alternateBounds" />
          </mxGeometry>
        </mxCell>
        <mxCell id="UCEMCd99DlRj_nNGnzx5-2" value="+ teamA: Team" style="text;strokeColor=none;fillColor=none;align=left;verticalAlign=top;spacingLeft=4;spacingRight=4;overflow=hidden;rotatable=0;points=[[0,0.5],[1,0.5]];portConstraint=eastwest;whiteSpace=wrap;html=1;" vertex="1" parent="UCEMCd99DlRj_nNGnzx5-1">
          <mxGeometry y="26" width="160" height="26" as="geometry" />
        </mxCell>
        <mxCell id="UCEMCd99DlRj_nNGnzx5-3" value="+ teamB: Team" style="text;strokeColor=none;fillColor=none;align=left;verticalAlign=top;spacingLeft=4;spacingRight=4;overflow=hidden;rotatable=0;points=[[0,0.5],[1,0.5]];portConstraint=eastwest;whiteSpace=wrap;html=1;" vertex="1" parent="UCEMCd99DlRj_nNGnzx5-1">
          <mxGeometry y="52" width="160" height="26" as="geometry" />
        </mxCell>
        <mxCell id="UCEMCd99DlRj_nNGnzx5-4" value="+ matchDate: Date" style="text;strokeColor=none;fillColor=none;align=left;verticalAlign=top;spacingLeft=4;spacingRight=4;overflow=hidden;rotatable=0;points=[[0,0.5],[1,0.5]];portConstraint=eastwest;whiteSpace=wrap;html=1;" vertex="1" parent="UCEMCd99DlRj_nNGnzx5-1">
          <mxGeometry y="78" width="160" height="32" as="geometry" />
        </mxCell>
        <mxCell id="UCEMCd99DlRj_nNGnzx5-9" value="+ venue: String" style="text;strokeColor=none;fillColor=none;align=left;verticalAlign=top;spacingLeft=4;spacingRight=4;overflow=hidden;rotatable=0;points=[[0,0.5],[1,0.5]];portConstraint=eastwest;whiteSpace=wrap;html=1;" vertex="1" parent="UCEMCd99DlRj_nNGnzx5-1">
          <mxGeometry y="110" width="160" height="26" as="geometry" />
        </mxCell>
        <mxCell id="UCEMCd99DlRj_nNGnzx5-10" value="+ tossWinner: Team" style="text;strokeColor=none;fillColor=none;align=left;verticalAlign=top;spacingLeft=4;spacingRight=4;overflow=hidden;rotatable=0;points=[[0,0.5],[1,0.5]];portConstraint=eastwest;whiteSpace=wrap;html=1;" vertex="1" parent="UCEMCd99DlRj_nNGnzx5-1">
          <mxGeometry y="136" width="160" height="26" as="geometry" />
        </mxCell>
        <mxCell id="UCEMCd99DlRj_nNGnzx5-11" value="+ innings: InningDetail" style="text;strokeColor=none;fillColor=none;align=left;verticalAlign=top;spacingLeft=4;spacingRight=4;overflow=hidden;rotatable=0;points=[[0,0.5],[1,0.5]];portConstraint=eastwest;whiteSpace=wrap;html=1;" vertex="1" parent="UCEMCd99DlRj_nNGnzx5-1">
          <mxGeometry y="162" width="160" height="26" as="geometry" />
        </mxCell>
        <mxCell id="UCEMCd99DlRj_nNGnzx5-8" value="+ matchType : MatchType" style="text;strokeColor=none;fillColor=none;align=left;verticalAlign=top;spacingLeft=4;spacingRight=4;overflow=hidden;rotatable=0;points=[[0,0.5],[1,0.5]];portConstraint=eastwest;whiteSpace=wrap;html=1;" vertex="1" parent="UCEMCd99DlRj_nNGnzx5-1">
          <mxGeometry y="188" width="160" height="22" as="geometry" />
        </mxCell>
        <mxCell id="UCEMCd99DlRj_nNGnzx5-14" value="Team" style="swimlane;fontStyle=0;childLayout=stackLayout;horizontal=1;startSize=24;fillColor=none;horizontalStack=0;resizeParent=1;resizeParentMax=0;resizeLast=0;collapsible=1;marginBottom=0;whiteSpace=wrap;html=1;" vertex="1" parent="1">
          <mxGeometry x="-1520" y="-1000" width="140" height="148" as="geometry" />
        </mxCell>
        <mxCell id="UCEMCd99DlRj_nNGnzx5-15" value="&lt;font style=&quot;font-size: 8px;&quot;&gt;+ name: string&lt;/font&gt;" style="text;strokeColor=none;fillColor=none;align=left;verticalAlign=top;spacingLeft=4;spacingRight=4;overflow=hidden;rotatable=0;points=[[0,0.5],[1,0.5]];portConstraint=eastwest;whiteSpace=wrap;html=1;" vertex="1" parent="UCEMCd99DlRj_nNGnzx5-14">
          <mxGeometry y="24" width="140" height="24" as="geometry" />
        </mxCell>
        <mxCell id="UCEMCd99DlRj_nNGnzx5-16" value="+ &lt;font style=&quot;font-size: 8px;&quot;&gt;playing11: Queue&amp;lt;PlayerDetails&amp;gt;&lt;/font&gt;" style="text;strokeColor=none;fillColor=none;align=left;verticalAlign=top;spacingLeft=4;spacingRight=4;overflow=hidden;rotatable=0;points=[[0,0.5],[1,0.5]];portConstraint=eastwest;whiteSpace=wrap;html=1;" vertex="1" parent="UCEMCd99DlRj_nNGnzx5-14">
          <mxGeometry y="48" width="140" height="20" as="geometry" />
        </mxCell>
        <mxCell id="UCEMCd99DlRj_nNGnzx5-17" value="&lt;font style=&quot;font-size: 8px;&quot;&gt;+ bench: List&amp;lt;PlayerDetails&amp;gt;&lt;/font&gt;" style="text;strokeColor=none;fillColor=none;align=left;verticalAlign=top;spacingLeft=4;spacingRight=4;overflow=hidden;rotatable=0;points=[[0,0.5],[1,0.5]];portConstraint=eastwest;whiteSpace=wrap;html=1;" vertex="1" parent="UCEMCd99DlRj_nNGnzx5-14">
          <mxGeometry y="68" width="140" height="20" as="geometry" />
        </mxCell>
        <mxCell id="UCEMCd99DlRj_nNGnzx5-20" value="&lt;font style=&quot;font-size: 7px;&quot;&gt;+ bowlingController: bowlingController&lt;/font&gt;" style="text;strokeColor=none;fillColor=none;align=left;verticalAlign=top;spacingLeft=4;spacingRight=4;overflow=hidden;rotatable=0;points=[[0,0.5],[1,0.5]];portConstraint=eastwest;whiteSpace=wrap;html=1;" vertex="1" parent="UCEMCd99DlRj_nNGnzx5-14">
          <mxGeometry y="88" width="140" height="20" as="geometry" />
        </mxCell>
        <mxCell id="UCEMCd99DlRj_nNGnzx5-21" value="&lt;font style=&quot;font-size: 8px;&quot;&gt;+ battingController: battingController&lt;/font&gt;" style="text;strokeColor=none;fillColor=none;align=left;verticalAlign=top;spacingLeft=4;spacingRight=4;overflow=hidden;rotatable=0;points=[[0,0.5],[1,0.5]];portConstraint=eastwest;whiteSpace=wrap;html=1;" vertex="1" parent="UCEMCd99DlRj_nNGnzx5-14">
          <mxGeometry y="108" width="140" height="20" as="geometry" />
        </mxCell>
        <mxCell id="UCEMCd99DlRj_nNGnzx5-22" value="&lt;font style=&quot;font-size: 8px;&quot;&gt;+ isWinner: boolean&lt;/font&gt;" style="text;strokeColor=none;fillColor=none;align=left;verticalAlign=top;spacingLeft=4;spacingRight=4;overflow=hidden;rotatable=0;points=[[0,0.5],[1,0.5]];portConstraint=eastwest;whiteSpace=wrap;html=1;" vertex="1" parent="UCEMCd99DlRj_nNGnzx5-14">
          <mxGeometry y="128" width="140" height="20" as="geometry" />
        </mxCell>
        <mxCell id="UCEMCd99DlRj_nNGnzx5-18" style="edgeStyle=orthogonalEdgeStyle;rounded=0;orthogonalLoop=1;jettySize=auto;html=1;entryX=-0.008;entryY=0.38;entryDx=0;entryDy=0;entryPerimeter=0;" edge="1" parent="1" source="UCEMCd99DlRj_nNGnzx5-2" target="UCEMCd99DlRj_nNGnzx5-16">
          <mxGeometry relative="1" as="geometry" />
        </mxCell>
        <mxCell id="UCEMCd99DlRj_nNGnzx5-23" value="PlayerDetails" style="swimlane;fontStyle=0;childLayout=stackLayout;horizontal=1;startSize=26;fillColor=none;horizontalStack=0;resizeParent=1;resizeParentMax=0;resizeLast=0;collapsible=1;marginBottom=0;whiteSpace=wrap;html=1;" vertex="1" parent="1">
          <mxGeometry x="-1220" y="-1080" width="140" height="130" as="geometry" />
        </mxCell>
        <mxCell id="UCEMCd99DlRj_nNGnzx5-24" value="&lt;font style=&quot;font-size: 7px;&quot;&gt;+ person: Person&lt;/font&gt;" style="text;strokeColor=none;fillColor=none;align=left;verticalAlign=top;spacingLeft=4;spacingRight=4;overflow=hidden;rotatable=0;points=[[0,0.5],[1,0.5]];portConstraint=eastwest;whiteSpace=wrap;html=1;" vertex="1" parent="UCEMCd99DlRj_nNGnzx5-23">
          <mxGeometry y="26" width="140" height="26" as="geometry" />
        </mxCell>
        <mxCell id="UCEMCd99DlRj_nNGnzx5-25" value="&lt;font style=&quot;font-size: 7px;&quot;&gt;+ playerType: PlayerType&lt;/font&gt;" style="text;strokeColor=none;fillColor=none;align=left;verticalAlign=top;spacingLeft=4;spacingRight=4;overflow=hidden;rotatable=0;points=[[0,0.5],[1,0.5]];portConstraint=eastwest;whiteSpace=wrap;html=1;" vertex="1" parent="UCEMCd99DlRj_nNGnzx5-23">
          <mxGeometry y="52" width="140" height="26" as="geometry" />
        </mxCell>
        <mxCell id="UCEMCd99DlRj_nNGnzx5-26" value="&lt;font style=&quot;font-size: 7px;&quot;&gt;+ battingscoreCard: battingScoreCard&lt;/font&gt;" style="text;strokeColor=none;fillColor=none;align=left;verticalAlign=top;spacingLeft=4;spacingRight=4;overflow=hidden;rotatable=0;points=[[0,0.5],[1,0.5]];portConstraint=eastwest;whiteSpace=wrap;html=1;" vertex="1" parent="UCEMCd99DlRj_nNGnzx5-23">
          <mxGeometry y="78" width="140" height="26" as="geometry" />
        </mxCell>
        <mxCell id="UCEMCd99DlRj_nNGnzx5-28" value="&lt;font style=&quot;font-size: 7px;&quot;&gt;+ bowlingscoreCard: bowlingScoreCard&lt;/font&gt;" style="text;strokeColor=none;fillColor=none;align=left;verticalAlign=top;spacingLeft=4;spacingRight=4;overflow=hidden;rotatable=0;points=[[0,0.5],[1,0.5]];portConstraint=eastwest;whiteSpace=wrap;html=1;" vertex="1" parent="UCEMCd99DlRj_nNGnzx5-23">
          <mxGeometry y="104" width="140" height="26" as="geometry" />
        </mxCell>
        <mxCell id="UCEMCd99DlRj_nNGnzx5-30" style="edgeStyle=orthogonalEdgeStyle;rounded=0;orthogonalLoop=1;jettySize=auto;html=1;entryX=0;entryY=0.5;entryDx=0;entryDy=0;" edge="1" parent="1" source="UCEMCd99DlRj_nNGnzx5-15" target="UCEMCd99DlRj_nNGnzx5-25">
          <mxGeometry relative="1" as="geometry" />
        </mxCell>
        <mxCell id="UCEMCd99DlRj_nNGnzx5-31" value="Person" style="swimlane;fontStyle=0;childLayout=stackLayout;horizontal=1;startSize=26;fillColor=none;horizontalStack=0;resizeParent=1;resizeParentMax=0;resizeLast=0;collapsible=1;marginBottom=0;whiteSpace=wrap;html=1;" vertex="1" parent="1">
          <mxGeometry x="-430" y="-1150" width="140" height="104" as="geometry" />
        </mxCell>
        <mxCell id="UCEMCd99DlRj_nNGnzx5-32" value="+ name:String" style="text;strokeColor=none;fillColor=none;align=left;verticalAlign=top;spacingLeft=4;spacingRight=4;overflow=hidden;rotatable=0;points=[[0,0.5],[1,0.5]];portConstraint=eastwest;whiteSpace=wrap;html=1;" vertex="1" parent="UCEMCd99DlRj_nNGnzx5-31">
          <mxGeometry y="26" width="140" height="26" as="geometry" />
        </mxCell>
        <mxCell id="UCEMCd99DlRj_nNGnzx5-33" value="+ age:int" style="text;strokeColor=none;fillColor=none;align=left;verticalAlign=top;spacingLeft=4;spacingRight=4;overflow=hidden;rotatable=0;points=[[0,0.5],[1,0.5]];portConstraint=eastwest;whiteSpace=wrap;html=1;" vertex="1" parent="UCEMCd99DlRj_nNGnzx5-31">
          <mxGeometry y="52" width="140" height="26" as="geometry" />
        </mxCell>
        <mxCell id="UCEMCd99DlRj_nNGnzx5-34" value="+ address:string" style="text;strokeColor=none;fillColor=none;align=left;verticalAlign=top;spacingLeft=4;spacingRight=4;overflow=hidden;rotatable=0;points=[[0,0.5],[1,0.5]];portConstraint=eastwest;whiteSpace=wrap;html=1;" vertex="1" parent="UCEMCd99DlRj_nNGnzx5-31">
          <mxGeometry y="78" width="140" height="26" as="geometry" />
        </mxCell>
        <mxCell id="UCEMCd99DlRj_nNGnzx5-35" style="edgeStyle=orthogonalEdgeStyle;rounded=0;orthogonalLoop=1;jettySize=auto;html=1;entryX=-0.012;entryY=1.084;entryDx=0;entryDy=0;entryPerimeter=0;" edge="1" parent="1" source="UCEMCd99DlRj_nNGnzx5-24" target="UCEMCd99DlRj_nNGnzx5-32">
          <mxGeometry relative="1" as="geometry">
            <Array as="points">
              <mxPoint x="-550" y="-1041" />
              <mxPoint x="-550" y="-1096" />
            </Array>
          </mxGeometry>
        </mxCell>
        <mxCell id="UCEMCd99DlRj_nNGnzx5-36" value="PlayerType" style="swimlane;fontStyle=0;childLayout=stackLayout;horizontal=1;startSize=26;fillColor=none;horizontalStack=0;resizeParent=1;resizeParentMax=0;resizeLast=0;collapsible=1;marginBottom=0;whiteSpace=wrap;html=1;" vertex="1" parent="1">
          <mxGeometry x="-430" y="-1030" width="140" height="110" as="geometry" />
        </mxCell>
        <mxCell id="UCEMCd99DlRj_nNGnzx5-37" value="{ BATSMAN,BOWLER&lt;div&gt;&amp;nbsp;WICKETKEEPER,&amp;nbsp;&lt;/div&gt;&lt;div&gt;CAPTAIN, ALLROUNDER&amp;nbsp;&lt;/div&gt;&lt;div&gt;}&lt;/div&gt;" style="text;strokeColor=none;fillColor=none;align=left;verticalAlign=top;spacingLeft=4;spacingRight=4;overflow=hidden;rotatable=0;points=[[0,0.5],[1,0.5]];portConstraint=eastwest;whiteSpace=wrap;html=1;" vertex="1" parent="UCEMCd99DlRj_nNGnzx5-36">
          <mxGeometry y="26" width="140" height="84" as="geometry" />
        </mxCell>
        <mxCell id="UCEMCd99DlRj_nNGnzx5-42" value="BattingScoreCard" style="swimlane;fontStyle=0;childLayout=stackLayout;horizontal=1;startSize=26;fillColor=none;horizontalStack=0;resizeParent=1;resizeParentMax=0;resizeLast=0;collapsible=1;marginBottom=0;whiteSpace=wrap;html=1;" vertex="1" parent="1">
          <mxGeometry x="-430" y="-900" width="140" height="182" as="geometry" />
        </mxCell>
        <mxCell id="UCEMCd99DlRj_nNGnzx5-43" value="+ totalRuns: int" style="text;strokeColor=none;fillColor=none;align=left;verticalAlign=top;spacingLeft=4;spacingRight=4;overflow=hidden;rotatable=0;points=[[0,0.5],[1,0.5]];portConstraint=eastwest;whiteSpace=wrap;html=1;" vertex="1" parent="UCEMCd99DlRj_nNGnzx5-42">
          <mxGeometry y="26" width="140" height="26" as="geometry" />
        </mxCell>
        <mxCell id="UCEMCd99DlRj_nNGnzx5-44" value="+ totalballsplayer: int" style="text;strokeColor=none;fillColor=none;align=left;verticalAlign=top;spacingLeft=4;spacingRight=4;overflow=hidden;rotatable=0;points=[[0,0.5],[1,0.5]];portConstraint=eastwest;whiteSpace=wrap;html=1;" vertex="1" parent="UCEMCd99DlRj_nNGnzx5-42">
          <mxGeometry y="52" width="140" height="26" as="geometry" />
        </mxCell>
        <mxCell id="UCEMCd99DlRj_nNGnzx5-45" value="+ totalFours: int" style="text;strokeColor=none;fillColor=none;align=left;verticalAlign=top;spacingLeft=4;spacingRight=4;overflow=hidden;rotatable=0;points=[[0,0.5],[1,0.5]];portConstraint=eastwest;whiteSpace=wrap;html=1;" vertex="1" parent="UCEMCd99DlRj_nNGnzx5-42">
          <mxGeometry y="78" width="140" height="26" as="geometry" />
        </mxCell>
        <mxCell id="UCEMCd99DlRj_nNGnzx5-46" value="+ totalSix: int" style="text;strokeColor=none;fillColor=none;align=left;verticalAlign=top;spacingLeft=4;spacingRight=4;overflow=hidden;rotatable=0;points=[[0,0.5],[1,0.5]];portConstraint=eastwest;whiteSpace=wrap;html=1;" vertex="1" parent="UCEMCd99DlRj_nNGnzx5-42">
          <mxGeometry y="104" width="140" height="26" as="geometry" />
        </mxCell>
        <mxCell id="UCEMCd99DlRj_nNGnzx5-48" value="+ strikeRate: double" style="text;strokeColor=none;fillColor=none;align=left;verticalAlign=top;spacingLeft=4;spacingRight=4;overflow=hidden;rotatable=0;points=[[0,0.5],[1,0.5]];portConstraint=eastwest;whiteSpace=wrap;html=1;" vertex="1" parent="UCEMCd99DlRj_nNGnzx5-42">
          <mxGeometry y="130" width="140" height="26" as="geometry" />
        </mxCell>
        <mxCell id="UCEMCd99DlRj_nNGnzx5-47" value="+ wicketDetails : Wicket" style="text;strokeColor=none;fillColor=none;align=left;verticalAlign=top;spacingLeft=4;spacingRight=4;overflow=hidden;rotatable=0;points=[[0,0.5],[1,0.5]];portConstraint=eastwest;whiteSpace=wrap;html=1;" vertex="1" parent="UCEMCd99DlRj_nNGnzx5-42">
          <mxGeometry y="156" width="140" height="26" as="geometry" />
        </mxCell>
        <mxCell id="UCEMCd99DlRj_nNGnzx5-49" style="edgeStyle=orthogonalEdgeStyle;rounded=0;orthogonalLoop=1;jettySize=auto;html=1;entryX=0;entryY=0.11;entryDx=0;entryDy=0;entryPerimeter=0;" edge="1" parent="1" source="UCEMCd99DlRj_nNGnzx5-26" target="UCEMCd99DlRj_nNGnzx5-42">
          <mxGeometry relative="1" as="geometry">
            <Array as="points">
              <mxPoint x="-510" y="-989" />
              <mxPoint x="-510" y="-880" />
            </Array>
          </mxGeometry>
        </mxCell>
        <mxCell id="UCEMCd99DlRj_nNGnzx5-50" style="edgeStyle=orthogonalEdgeStyle;rounded=0;orthogonalLoop=1;jettySize=auto;html=1;exitX=1;exitY=0.5;exitDx=0;exitDy=0;entryX=0;entryY=0.134;entryDx=0;entryDy=0;entryPerimeter=0;" edge="1" parent="1" source="UCEMCd99DlRj_nNGnzx5-23" target="UCEMCd99DlRj_nNGnzx5-36">
          <mxGeometry relative="1" as="geometry" />
        </mxCell>
        <mxCell id="UCEMCd99DlRj_nNGnzx5-60" style="edgeStyle=orthogonalEdgeStyle;rounded=0;orthogonalLoop=1;jettySize=auto;html=1;" edge="1" parent="1" source="UCEMCd99DlRj_nNGnzx5-51">
          <mxGeometry relative="1" as="geometry">
            <mxPoint x="-1170" y="-950" as="targetPoint" />
          </mxGeometry>
        </mxCell>
        <mxCell id="UCEMCd99DlRj_nNGnzx5-51" value="Wicket" style="swimlane;fontStyle=0;childLayout=stackLayout;horizontal=1;startSize=26;fillColor=none;horizontalStack=0;resizeParent=1;resizeParentMax=0;resizeLast=0;collapsible=1;marginBottom=0;whiteSpace=wrap;html=1;" vertex="1" parent="1">
          <mxGeometry x="-900" y="-817" width="180" height="130" as="geometry" />
        </mxCell>
        <mxCell id="UCEMCd99DlRj_nNGnzx5-52" value="+ wicketType: wicketType" style="text;strokeColor=none;fillColor=none;align=left;verticalAlign=top;spacingLeft=4;spacingRight=4;overflow=hidden;rotatable=0;points=[[0,0.5],[1,0.5]];portConstraint=eastwest;whiteSpace=wrap;html=1;" vertex="1" parent="UCEMCd99DlRj_nNGnzx5-51">
          <mxGeometry y="26" width="180" height="26" as="geometry" />
        </mxCell>
        <mxCell id="UCEMCd99DlRj_nNGnzx5-53" value="+ takenBy: PlayerDetails" style="text;strokeColor=none;fillColor=none;align=left;verticalAlign=top;spacingLeft=4;spacingRight=4;overflow=hidden;rotatable=0;points=[[0,0.5],[1,0.5]];portConstraint=eastwest;whiteSpace=wrap;html=1;" vertex="1" parent="UCEMCd99DlRj_nNGnzx5-51">
          <mxGeometry y="52" width="180" height="26" as="geometry" />
        </mxCell>
        <mxCell id="UCEMCd99DlRj_nNGnzx5-54" value="+ overDetails: overDetails" style="text;strokeColor=none;fillColor=none;align=left;verticalAlign=top;spacingLeft=4;spacingRight=4;overflow=hidden;rotatable=0;points=[[0,0.5],[1,0.5]];portConstraint=eastwest;whiteSpace=wrap;html=1;" vertex="1" parent="UCEMCd99DlRj_nNGnzx5-51">
          <mxGeometry y="78" width="180" height="26" as="geometry" />
        </mxCell>
        <mxCell id="UCEMCd99DlRj_nNGnzx5-58" value="+ ballDetails: ballDetails" style="text;strokeColor=none;fillColor=none;align=left;verticalAlign=top;spacingLeft=4;spacingRight=4;overflow=hidden;rotatable=0;points=[[0,0.5],[1,0.5]];portConstraint=eastwest;whiteSpace=wrap;html=1;" vertex="1" parent="UCEMCd99DlRj_nNGnzx5-51">
          <mxGeometry y="104" width="180" height="26" as="geometry" />
        </mxCell>
        <mxCell id="UCEMCd99DlRj_nNGnzx5-61" value="BowlingScoreCard" style="swimlane;fontStyle=0;childLayout=stackLayout;horizontal=1;startSize=26;fillColor=none;horizontalStack=0;resizeParent=1;resizeParentMax=0;resizeLast=0;collapsible=1;marginBottom=0;whiteSpace=wrap;html=1;" vertex="1" parent="1">
          <mxGeometry x="-490" y="-690" width="200" height="182" as="geometry" />
        </mxCell>
        <mxCell id="UCEMCd99DlRj_nNGnzx5-62" value="+ totalOversCount: int" style="text;strokeColor=none;fillColor=none;align=left;verticalAlign=top;spacingLeft=4;spacingRight=4;overflow=hidden;rotatable=0;points=[[0,0.5],[1,0.5]];portConstraint=eastwest;whiteSpace=wrap;html=1;" vertex="1" parent="UCEMCd99DlRj_nNGnzx5-61">
          <mxGeometry y="26" width="200" height="26" as="geometry" />
        </mxCell>
        <mxCell id="UCEMCd99DlRj_nNGnzx5-63" value="+ runsGiven:int" style="text;strokeColor=none;fillColor=none;align=left;verticalAlign=top;spacingLeft=4;spacingRight=4;overflow=hidden;rotatable=0;points=[[0,0.5],[1,0.5]];portConstraint=eastwest;whiteSpace=wrap;html=1;" vertex="1" parent="UCEMCd99DlRj_nNGnzx5-61">
          <mxGeometry y="52" width="200" height="26" as="geometry" />
        </mxCell>
        <mxCell id="UCEMCd99DlRj_nNGnzx5-67" value="+ wicketsTaken:int" style="text;strokeColor=none;fillColor=none;align=left;verticalAlign=top;spacingLeft=4;spacingRight=4;overflow=hidden;rotatable=0;points=[[0,0.5],[1,0.5]];portConstraint=eastwest;whiteSpace=wrap;html=1;" vertex="1" parent="UCEMCd99DlRj_nNGnzx5-61">
          <mxGeometry y="78" width="200" height="26" as="geometry" />
        </mxCell>
        <mxCell id="UCEMCd99DlRj_nNGnzx5-66" value="+ noBallCount:int" style="text;strokeColor=none;fillColor=none;align=left;verticalAlign=top;spacingLeft=4;spacingRight=4;overflow=hidden;rotatable=0;points=[[0,0.5],[1,0.5]];portConstraint=eastwest;whiteSpace=wrap;html=1;" vertex="1" parent="UCEMCd99DlRj_nNGnzx5-61">
          <mxGeometry y="104" width="200" height="26" as="geometry" />
        </mxCell>
        <mxCell id="UCEMCd99DlRj_nNGnzx5-65" value="+ wideBallCount: int" style="text;strokeColor=none;fillColor=none;align=left;verticalAlign=top;spacingLeft=4;spacingRight=4;overflow=hidden;rotatable=0;points=[[0,0.5],[1,0.5]];portConstraint=eastwest;whiteSpace=wrap;html=1;" vertex="1" parent="UCEMCd99DlRj_nNGnzx5-61">
          <mxGeometry y="130" width="200" height="26" as="geometry" />
        </mxCell>
        <mxCell id="UCEMCd99DlRj_nNGnzx5-64" value="+ economyRate: int" style="text;strokeColor=none;fillColor=none;align=left;verticalAlign=top;spacingLeft=4;spacingRight=4;overflow=hidden;rotatable=0;points=[[0,0.5],[1,0.5]];portConstraint=eastwest;whiteSpace=wrap;html=1;" vertex="1" parent="UCEMCd99DlRj_nNGnzx5-61">
          <mxGeometry y="156" width="200" height="26" as="geometry" />
        </mxCell>
        <mxCell id="UCEMCd99DlRj_nNGnzx5-69" style="edgeStyle=orthogonalEdgeStyle;rounded=0;orthogonalLoop=1;jettySize=auto;html=1;" edge="1" parent="1" source="UCEMCd99DlRj_nNGnzx5-47">
          <mxGeometry relative="1" as="geometry">
            <mxPoint x="-440" y="-731" as="sourcePoint" />
            <mxPoint x="-720" y="-731" as="targetPoint" />
          </mxGeometry>
        </mxCell>
        <mxCell id="UCEMCd99DlRj_nNGnzx5-70" style="edgeStyle=orthogonalEdgeStyle;rounded=0;orthogonalLoop=1;jettySize=auto;html=1;exitX=1;exitY=0.5;exitDx=0;exitDy=0;entryX=0;entryY=0.5;entryDx=0;entryDy=0;" edge="1" parent="1" source="UCEMCd99DlRj_nNGnzx5-28" target="UCEMCd99DlRj_nNGnzx5-66">
          <mxGeometry relative="1" as="geometry">
            <Array as="points">
              <mxPoint x="-550" y="-963" />
              <mxPoint x="-550" y="-573" />
            </Array>
          </mxGeometry>
        </mxCell>
        <mxCell id="UCEMCd99DlRj_nNGnzx5-71" value="battingController" style="swimlane;fontStyle=0;childLayout=stackLayout;horizontal=1;startSize=26;fillColor=none;horizontalStack=0;resizeParent=1;resizeParentMax=0;resizeLast=0;collapsible=1;marginBottom=0;whiteSpace=wrap;html=1;" vertex="1" parent="1">
          <mxGeometry x="-900" y="-540" width="180" height="104" as="geometry" />
        </mxCell>
        <mxCell id="UCEMCd99DlRj_nNGnzx5-72" value="&lt;font style=&quot;font-size: 10px;&quot;&gt;+ yetToplay: Queue&amp;lt;PlayerDetails&amp;gt;&lt;/font&gt;" style="text;strokeColor=none;fillColor=none;align=left;verticalAlign=top;spacingLeft=4;spacingRight=4;overflow=hidden;rotatable=0;points=[[0,0.5],[1,0.5]];portConstraint=eastwest;whiteSpace=wrap;html=1;" vertex="1" parent="UCEMCd99DlRj_nNGnzx5-71">
          <mxGeometry y="26" width="180" height="26" as="geometry" />
        </mxCell>
        <mxCell id="UCEMCd99DlRj_nNGnzx5-73" value="&lt;font style=&quot;font-size: 10px;&quot;&gt;+ striker: PlayerDetails&lt;/font&gt;" style="text;strokeColor=none;fillColor=none;align=left;verticalAlign=top;spacingLeft=4;spacingRight=4;overflow=hidden;rotatable=0;points=[[0,0.5],[1,0.5]];portConstraint=eastwest;whiteSpace=wrap;html=1;" vertex="1" parent="UCEMCd99DlRj_nNGnzx5-71">
          <mxGeometry y="52" width="180" height="26" as="geometry" />
        </mxCell>
        <mxCell id="UCEMCd99DlRj_nNGnzx5-74" value="&lt;font style=&quot;font-size: 10px;&quot;&gt;+ nonStriker: PlayerDetails&lt;/font&gt;" style="text;strokeColor=none;fillColor=none;align=left;verticalAlign=top;spacingLeft=4;spacingRight=4;overflow=hidden;rotatable=0;points=[[0,0.5],[1,0.5]];portConstraint=eastwest;whiteSpace=wrap;html=1;" vertex="1" parent="UCEMCd99DlRj_nNGnzx5-71">
          <mxGeometry y="78" width="180" height="26" as="geometry" />
        </mxCell>
        <mxCell id="UCEMCd99DlRj_nNGnzx5-76" value="bowlingController" style="swimlane;fontStyle=0;childLayout=stackLayout;horizontal=1;startSize=26;fillColor=none;horizontalStack=0;resizeParent=1;resizeParentMax=0;resizeLast=0;collapsible=1;marginBottom=0;whiteSpace=wrap;html=1;" vertex="1" parent="1">
          <mxGeometry x="-900" y="-670" width="180" height="104" as="geometry" />
        </mxCell>
        <mxCell id="UCEMCd99DlRj_nNGnzx5-77" value="+ bowlersList: Deque" style="text;strokeColor=none;fillColor=none;align=left;verticalAlign=top;spacingLeft=4;spacingRight=4;overflow=hidden;rotatable=0;points=[[0,0.5],[1,0.5]];portConstraint=eastwest;whiteSpace=wrap;html=1;" vertex="1" parent="UCEMCd99DlRj_nNGnzx5-76">
          <mxGeometry y="26" width="180" height="26" as="geometry" />
        </mxCell>
        <mxCell id="UCEMCd99DlRj_nNGnzx5-78" value="+ bowlerVsOverCount: Map&amp;lt;&amp;gt;" style="text;strokeColor=none;fillColor=none;align=left;verticalAlign=top;spacingLeft=4;spacingRight=4;overflow=hidden;rotatable=0;points=[[0,0.5],[1,0.5]];portConstraint=eastwest;whiteSpace=wrap;html=1;" vertex="1" parent="UCEMCd99DlRj_nNGnzx5-76">
          <mxGeometry y="52" width="180" height="26" as="geometry" />
        </mxCell>
        <mxCell id="UCEMCd99DlRj_nNGnzx5-79" value="+ currentBowler: PlayerDetails" style="text;strokeColor=none;fillColor=none;align=left;verticalAlign=top;spacingLeft=4;spacingRight=4;overflow=hidden;rotatable=0;points=[[0,0.5],[1,0.5]];portConstraint=eastwest;whiteSpace=wrap;html=1;" vertex="1" parent="UCEMCd99DlRj_nNGnzx5-76">
          <mxGeometry y="78" width="180" height="26" as="geometry" />
        </mxCell>
        <mxCell id="UCEMCd99DlRj_nNGnzx5-81" style="edgeStyle=orthogonalEdgeStyle;rounded=0;orthogonalLoop=1;jettySize=auto;html=1;entryX=0;entryY=0.5;entryDx=0;entryDy=0;" edge="1" parent="1" source="UCEMCd99DlRj_nNGnzx5-21" target="UCEMCd99DlRj_nNGnzx5-73">
          <mxGeometry relative="1" as="geometry">
            <Array as="points">
              <mxPoint x="-1230" y="-882" />
              <mxPoint x="-1230" y="-470" />
              <mxPoint x="-900" y="-470" />
            </Array>
          </mxGeometry>
        </mxCell>
        <mxCell id="UCEMCd99DlRj_nNGnzx5-83" style="edgeStyle=orthogonalEdgeStyle;rounded=0;orthogonalLoop=1;jettySize=auto;html=1;exitX=1;exitY=0.5;exitDx=0;exitDy=0;entryX=0;entryY=0.5;entryDx=0;entryDy=0;" edge="1" parent="1" source="UCEMCd99DlRj_nNGnzx5-20" target="UCEMCd99DlRj_nNGnzx5-78">
          <mxGeometry relative="1" as="geometry">
            <Array as="points">
              <mxPoint x="-1210" y="-902" />
              <mxPoint x="-1210" y="-605" />
            </Array>
          </mxGeometry>
        </mxCell>
        <mxCell id="UCEMCd99DlRj_nNGnzx5-84" style="edgeStyle=orthogonalEdgeStyle;rounded=0;orthogonalLoop=1;jettySize=auto;html=1;exitX=0;exitY=0.5;exitDx=0;exitDy=0;entryX=0.571;entryY=1;entryDx=0;entryDy=0;entryPerimeter=0;" edge="1" parent="1" source="UCEMCd99DlRj_nNGnzx5-72" target="UCEMCd99DlRj_nNGnzx5-28">
          <mxGeometry relative="1" as="geometry" />
        </mxCell>
        <mxCell id="UCEMCd99DlRj_nNGnzx5-85" style="edgeStyle=orthogonalEdgeStyle;rounded=0;orthogonalLoop=1;jettySize=auto;html=1;exitX=0;exitY=0.5;exitDx=0;exitDy=0;entryX=0.786;entryY=1;entryDx=0;entryDy=0;entryPerimeter=0;" edge="1" parent="1" source="UCEMCd99DlRj_nNGnzx5-77" target="UCEMCd99DlRj_nNGnzx5-28">
          <mxGeometry relative="1" as="geometry" />
        </mxCell>
        <mxCell id="UCEMCd99DlRj_nNGnzx5-86" value="InningDetails" style="swimlane;fontStyle=0;childLayout=stackLayout;horizontal=1;startSize=26;fillColor=none;horizontalStack=0;resizeParent=1;resizeParentMax=0;resizeLast=0;collapsible=1;marginBottom=0;whiteSpace=wrap;html=1;" vertex="1" parent="1">
          <mxGeometry x="-1530" y="-739" width="160" height="130" as="geometry" />
        </mxCell>
        <mxCell id="UCEMCd99DlRj_nNGnzx5-87" value="+ battingTeam: Team" style="text;strokeColor=none;fillColor=none;align=left;verticalAlign=top;spacingLeft=4;spacingRight=4;overflow=hidden;rotatable=0;points=[[0,0.5],[1,0.5]];portConstraint=eastwest;whiteSpace=wrap;html=1;" vertex="1" parent="UCEMCd99DlRj_nNGnzx5-86">
          <mxGeometry y="26" width="160" height="26" as="geometry" />
        </mxCell>
        <mxCell id="UCEMCd99DlRj_nNGnzx5-88" value="+ bowlingTeam: Team" style="text;strokeColor=none;fillColor=none;align=left;verticalAlign=top;spacingLeft=4;spacingRight=4;overflow=hidden;rotatable=0;points=[[0,0.5],[1,0.5]];portConstraint=eastwest;whiteSpace=wrap;html=1;" vertex="1" parent="UCEMCd99DlRj_nNGnzx5-86">
          <mxGeometry y="52" width="160" height="26" as="geometry" />
        </mxCell>
        <mxCell id="UCEMCd99DlRj_nNGnzx5-89" value="+ matchType:MatchType" style="text;strokeColor=none;fillColor=none;align=left;verticalAlign=top;spacingLeft=4;spacingRight=4;overflow=hidden;rotatable=0;points=[[0,0.5],[1,0.5]];portConstraint=eastwest;whiteSpace=wrap;html=1;" vertex="1" parent="UCEMCd99DlRj_nNGnzx5-86">
          <mxGeometry y="78" width="160" height="26" as="geometry" />
        </mxCell>
        <mxCell id="UCEMCd99DlRj_nNGnzx5-90" value="+ overs: List&amp;lt;OverDetails&amp;gt;" style="text;strokeColor=none;fillColor=none;align=left;verticalAlign=top;spacingLeft=4;spacingRight=4;overflow=hidden;rotatable=0;points=[[0,0.5],[1,0.5]];portConstraint=eastwest;whiteSpace=wrap;html=1;" vertex="1" parent="UCEMCd99DlRj_nNGnzx5-86">
          <mxGeometry y="104" width="160" height="26" as="geometry" />
        </mxCell>
        <mxCell id="UCEMCd99DlRj_nNGnzx5-91" style="edgeStyle=orthogonalEdgeStyle;rounded=0;orthogonalLoop=1;jettySize=auto;html=1;entryX=0.063;entryY=0.731;entryDx=0;entryDy=0;entryPerimeter=0;" edge="1" parent="1">
          <mxGeometry relative="1" as="geometry">
            <mxPoint x="-1660" y="-642" as="sourcePoint" />
            <mxPoint x="-1529.92" y="-641.9939999999999" as="targetPoint" />
          </mxGeometry>
        </mxCell>
        <mxCell id="UCEMCd99DlRj_nNGnzx5-92" style="edgeStyle=orthogonalEdgeStyle;rounded=0;orthogonalLoop=1;jettySize=auto;html=1;entryX=0;entryY=0.5;entryDx=0;entryDy=0;" edge="1" parent="1" source="UCEMCd99DlRj_nNGnzx5-87" target="UCEMCd99DlRj_nNGnzx5-20">
          <mxGeometry relative="1" as="geometry" />
        </mxCell>
        <mxCell id="UCEMCd99DlRj_nNGnzx5-93" value="&lt;p style=&quot;margin:0px;margin-top:4px;text-align:center;&quot;&gt;&lt;i&gt;&amp;lt;&amp;lt;Interface&amp;gt;&amp;gt;&lt;/i&gt;&lt;br&gt;&lt;b&gt;matchType&lt;/b&gt;&lt;/p&gt;&lt;hr size=&quot;1&quot; style=&quot;border-style:solid;&quot;&gt;&lt;p style=&quot;margin:0px;margin-left:4px;&quot;&gt;+ noOfOvers(): int&lt;br&gt;+ maxOverBowler():int&lt;/p&gt;" style="verticalAlign=top;align=left;overflow=fill;html=1;whiteSpace=wrap;" vertex="1" parent="1">
          <mxGeometry x="-1470" y="-566" width="210" height="86" as="geometry" />
        </mxCell>
        <mxCell id="UCEMCd99DlRj_nNGnzx5-94" style="edgeStyle=orthogonalEdgeStyle;rounded=0;orthogonalLoop=1;jettySize=auto;html=1;exitX=1;exitY=0.5;exitDx=0;exitDy=0;entryX=0.702;entryY=0.038;entryDx=0;entryDy=0;entryPerimeter=0;" edge="1" parent="1" source="UCEMCd99DlRj_nNGnzx5-89" target="UCEMCd99DlRj_nNGnzx5-93">
          <mxGeometry relative="1" as="geometry" />
        </mxCell>
        <mxCell id="UCEMCd99DlRj_nNGnzx5-95" style="edgeStyle=orthogonalEdgeStyle;rounded=0;orthogonalLoop=1;jettySize=auto;html=1;entryX=-0.014;entryY=0.651;entryDx=0;entryDy=0;entryPerimeter=0;" edge="1" parent="1" source="UCEMCd99DlRj_nNGnzx5-8" target="UCEMCd99DlRj_nNGnzx5-93">
          <mxGeometry relative="1" as="geometry">
            <Array as="points">
              <mxPoint x="-1740" y="-510" />
            </Array>
          </mxGeometry>
        </mxCell>
        <mxCell id="UCEMCd99DlRj_nNGnzx5-96" value="OverDetails" style="swimlane;fontStyle=0;childLayout=stackLayout;horizontal=1;startSize=26;fillColor=none;horizontalStack=0;resizeParent=1;resizeParentMax=0;resizeLast=0;collapsible=1;marginBottom=0;whiteSpace=wrap;html=1;" vertex="1" parent="1">
          <mxGeometry x="-1080" y="-400" width="160" height="130" as="geometry" />
        </mxCell>
        <mxCell id="UCEMCd99DlRj_nNGnzx5-97" value="+ overNumber : int" style="text;strokeColor=none;fillColor=none;align=left;verticalAlign=top;spacingLeft=4;spacingRight=4;overflow=hidden;rotatable=0;points=[[0,0.5],[1,0.5]];portConstraint=eastwest;whiteSpace=wrap;html=1;" vertex="1" parent="UCEMCd99DlRj_nNGnzx5-96">
          <mxGeometry y="26" width="160" height="26" as="geometry" />
        </mxCell>
        <mxCell id="UCEMCd99DlRj_nNGnzx5-98" value="+ balls: List&amp;lt;BallDetails&amp;gt;" style="text;strokeColor=none;fillColor=none;align=left;verticalAlign=top;spacingLeft=4;spacingRight=4;overflow=hidden;rotatable=0;points=[[0,0.5],[1,0.5]];portConstraint=eastwest;whiteSpace=wrap;html=1;" vertex="1" parent="UCEMCd99DlRj_nNGnzx5-96">
          <mxGeometry y="52" width="160" height="26" as="geometry" />
        </mxCell>
        <mxCell id="UCEMCd99DlRj_nNGnzx5-99" value="+ extraBallsCount: int" style="text;strokeColor=none;fillColor=none;align=left;verticalAlign=top;spacingLeft=4;spacingRight=4;overflow=hidden;rotatable=0;points=[[0,0.5],[1,0.5]];portConstraint=eastwest;whiteSpace=wrap;html=1;" vertex="1" parent="UCEMCd99DlRj_nNGnzx5-96">
          <mxGeometry y="78" width="160" height="26" as="geometry" />
        </mxCell>
        <mxCell id="UCEMCd99DlRj_nNGnzx5-100" value="+ bowledBy: PlayerDetails" style="text;strokeColor=none;fillColor=none;align=left;verticalAlign=top;spacingLeft=4;spacingRight=4;overflow=hidden;rotatable=0;points=[[0,0.5],[1,0.5]];portConstraint=eastwest;whiteSpace=wrap;html=1;" vertex="1" parent="UCEMCd99DlRj_nNGnzx5-96">
          <mxGeometry y="104" width="160" height="26" as="geometry" />
        </mxCell>
        <mxCell id="UCEMCd99DlRj_nNGnzx5-101" style="edgeStyle=orthogonalEdgeStyle;rounded=0;orthogonalLoop=1;jettySize=auto;html=1;exitX=1;exitY=0.5;exitDx=0;exitDy=0;entryX=0;entryY=0.5;entryDx=0;entryDy=0;" edge="1" parent="1" source="UCEMCd99DlRj_nNGnzx5-88" target="UCEMCd99DlRj_nNGnzx5-99">
          <mxGeometry relative="1" as="geometry">
            <Array as="points">
              <mxPoint x="-1240" y="-674" />
              <mxPoint x="-1240" y="-309" />
            </Array>
          </mxGeometry>
        </mxCell>
        <mxCell id="UCEMCd99DlRj_nNGnzx5-102" style="edgeStyle=orthogonalEdgeStyle;rounded=0;orthogonalLoop=1;jettySize=auto;html=1;entryX=0;entryY=0.5;entryDx=0;entryDy=0;" edge="1" parent="1" source="UCEMCd99DlRj_nNGnzx5-100" target="UCEMCd99DlRj_nNGnzx5-17">
          <mxGeometry relative="1" as="geometry">
            <Array as="points">
              <mxPoint x="-1570" y="-283" />
              <mxPoint x="-1570" y="-922" />
            </Array>
          </mxGeometry>
        </mxCell>
        <mxCell id="UCEMCd99DlRj_nNGnzx5-103" value="BallDetails" style="swimlane;fontStyle=0;childLayout=stackLayout;horizontal=1;startSize=26;fillColor=none;horizontalStack=0;resizeParent=1;resizeParentMax=0;resizeLast=0;collapsible=1;marginBottom=0;whiteSpace=wrap;html=1;" vertex="1" parent="1">
          <mxGeometry x="-640" y="-380" width="200" height="208" as="geometry" />
        </mxCell>
        <mxCell id="UCEMCd99DlRj_nNGnzx5-104" value="+ ballNumber: int" style="text;strokeColor=none;fillColor=none;align=left;verticalAlign=top;spacingLeft=4;spacingRight=4;overflow=hidden;rotatable=0;points=[[0,0.5],[1,0.5]];portConstraint=eastwest;whiteSpace=wrap;html=1;" vertex="1" parent="UCEMCd99DlRj_nNGnzx5-103">
          <mxGeometry y="26" width="200" height="26" as="geometry" />
        </mxCell>
        <mxCell id="UCEMCd99DlRj_nNGnzx5-105" value="+ ballType: BallType" style="text;strokeColor=none;fillColor=none;align=left;verticalAlign=top;spacingLeft=4;spacingRight=4;overflow=hidden;rotatable=0;points=[[0,0.5],[1,0.5]];portConstraint=eastwest;whiteSpace=wrap;html=1;" vertex="1" parent="UCEMCd99DlRj_nNGnzx5-103">
          <mxGeometry y="52" width="200" height="26" as="geometry" />
        </mxCell>
        <mxCell id="UCEMCd99DlRj_nNGnzx5-107" value="+ runType: RunType" style="text;strokeColor=none;fillColor=none;align=left;verticalAlign=top;spacingLeft=4;spacingRight=4;overflow=hidden;rotatable=0;points=[[0,0.5],[1,0.5]];portConstraint=eastwest;whiteSpace=wrap;html=1;" vertex="1" parent="UCEMCd99DlRj_nNGnzx5-103">
          <mxGeometry y="78" width="200" height="26" as="geometry" />
        </mxCell>
        <mxCell id="UCEMCd99DlRj_nNGnzx5-108" value="+ playedBy: PlayerDetails" style="text;strokeColor=none;fillColor=none;align=left;verticalAlign=top;spacingLeft=4;spacingRight=4;overflow=hidden;rotatable=0;points=[[0,0.5],[1,0.5]];portConstraint=eastwest;whiteSpace=wrap;html=1;" vertex="1" parent="UCEMCd99DlRj_nNGnzx5-103">
          <mxGeometry y="104" width="200" height="26" as="geometry" />
        </mxCell>
        <mxCell id="UCEMCd99DlRj_nNGnzx5-110" value="+ bowledBy: PlayerDetails" style="text;strokeColor=none;fillColor=none;align=left;verticalAlign=top;spacingLeft=4;spacingRight=4;overflow=hidden;rotatable=0;points=[[0,0.5],[1,0.5]];portConstraint=eastwest;whiteSpace=wrap;html=1;" vertex="1" parent="UCEMCd99DlRj_nNGnzx5-103">
          <mxGeometry y="130" width="200" height="26" as="geometry" />
        </mxCell>
        <mxCell id="UCEMCd99DlRj_nNGnzx5-109" value="+ wicket : wicket" style="text;strokeColor=none;fillColor=none;align=left;verticalAlign=top;spacingLeft=4;spacingRight=4;overflow=hidden;rotatable=0;points=[[0,0.5],[1,0.5]];portConstraint=eastwest;whiteSpace=wrap;html=1;" vertex="1" parent="UCEMCd99DlRj_nNGnzx5-103">
          <mxGeometry y="156" width="200" height="26" as="geometry" />
        </mxCell>
        <mxCell id="UCEMCd99DlRj_nNGnzx5-106" value="+ scoreUpdaterObserver: List&amp;lt;&amp;gt;" style="text;strokeColor=none;fillColor=none;align=left;verticalAlign=top;spacingLeft=4;spacingRight=4;overflow=hidden;rotatable=0;points=[[0,0.5],[1,0.5]];portConstraint=eastwest;whiteSpace=wrap;html=1;" vertex="1" parent="UCEMCd99DlRj_nNGnzx5-103">
          <mxGeometry y="182" width="200" height="26" as="geometry" />
        </mxCell>
        <mxCell id="UCEMCd99DlRj_nNGnzx5-112" style="edgeStyle=orthogonalEdgeStyle;rounded=0;orthogonalLoop=1;jettySize=auto;html=1;entryX=0;entryY=0.731;entryDx=0;entryDy=0;entryPerimeter=0;" edge="1" parent="1" source="UCEMCd99DlRj_nNGnzx5-98" target="UCEMCd99DlRj_nNGnzx5-104">
          <mxGeometry relative="1" as="geometry" />
        </mxCell>
        <mxCell id="UCEMCd99DlRj_nNGnzx5-113" value="&lt;p style=&quot;margin:0px;margin-top:4px;text-align:center;&quot;&gt;&lt;i&gt;&amp;lt;&amp;lt;Interface&amp;gt;&amp;gt;&lt;/i&gt;&lt;br&gt;&lt;b&gt;ScoreUpdaterObserver&lt;/b&gt;&lt;/p&gt;&lt;hr size=&quot;1&quot; style=&quot;border-style:solid;&quot;&gt;&lt;p style=&quot;margin:0px;margin-left:4px;&quot;&gt;+ update(BallDetails): void&lt;br&gt;&lt;/p&gt;" style="verticalAlign=top;align=left;overflow=fill;html=1;whiteSpace=wrap;" vertex="1" parent="1">
          <mxGeometry x="-190" y="-490" width="160" height="77" as="geometry" />
        </mxCell>
        <mxCell id="UCEMCd99DlRj_nNGnzx5-118" value="BattingScoreUpdater" style="swimlane;fontStyle=0;childLayout=stackLayout;horizontal=1;startSize=26;fillColor=none;horizontalStack=0;resizeParent=1;resizeParentMax=0;resizeLast=0;collapsible=1;marginBottom=0;whiteSpace=wrap;html=1;" vertex="1" parent="1">
          <mxGeometry x="-340" y="-360" width="140" height="52" as="geometry" />
        </mxCell>
        <mxCell id="UCEMCd99DlRj_nNGnzx5-122" value="BowlingScoreUpdater" style="swimlane;fontStyle=0;childLayout=stackLayout;horizontal=1;startSize=26;fillColor=none;horizontalStack=0;resizeParent=1;resizeParentMax=0;resizeLast=0;collapsible=1;marginBottom=0;whiteSpace=wrap;html=1;" vertex="1" parent="1">
          <mxGeometry x="-340" y="-190" width="140" height="52" as="geometry" />
        </mxCell>
        <mxCell id="UCEMCd99DlRj_nNGnzx5-128" value="Implements" style="html=1;verticalAlign=bottom;endArrow=open;dashed=1;endSize=8;curved=0;rounded=0;entryX=0.5;entryY=1;entryDx=0;entryDy=0;" edge="1" parent="1" target="UCEMCd99DlRj_nNGnzx5-113">
          <mxGeometry x="-0.1133" y="-41" relative="1" as="geometry">
            <mxPoint x="-200" y="-330" as="sourcePoint" />
            <mxPoint x="-110" y="-300" as="targetPoint" />
            <Array as="points">
              <mxPoint x="-160" y="-330" />
              <mxPoint x="-110" y="-330" />
            </Array>
            <mxPoint x="-1" y="10" as="offset" />
          </mxGeometry>
        </mxCell>
        <mxCell id="UCEMCd99DlRj_nNGnzx5-129" value="" style="html=1;verticalAlign=bottom;endArrow=open;dashed=1;endSize=8;curved=0;rounded=0;" edge="1" parent="1">
          <mxGeometry x="-0.0001" relative="1" as="geometry">
            <mxPoint x="-200" y="-160" as="sourcePoint" />
            <mxPoint x="-110" y="-410" as="targetPoint" />
            <Array as="points">
              <mxPoint x="-110" y="-160" />
            </Array>
            <mxPoint as="offset" />
          </mxGeometry>
        </mxCell>
        <mxCell id="UCEMCd99DlRj_nNGnzx5-130" style="edgeStyle=orthogonalEdgeStyle;rounded=0;orthogonalLoop=1;jettySize=auto;html=1;exitX=1;exitY=0.5;exitDx=0;exitDy=0;entryX=0;entryY=0.5;entryDx=0;entryDy=0;" edge="1" parent="1" source="UCEMCd99DlRj_nNGnzx5-106" target="UCEMCd99DlRj_nNGnzx5-118">
          <mxGeometry relative="1" as="geometry" />
        </mxCell>
        <mxCell id="UCEMCd99DlRj_nNGnzx5-132" style="edgeStyle=orthogonalEdgeStyle;rounded=0;orthogonalLoop=1;jettySize=auto;html=1;exitX=1;exitY=0.5;exitDx=0;exitDy=0;entryX=0;entryY=0.5;entryDx=0;entryDy=0;" edge="1" parent="1" source="UCEMCd99DlRj_nNGnzx5-106" target="UCEMCd99DlRj_nNGnzx5-122">
          <mxGeometry relative="1" as="geometry" />
        </mxCell>
      </root>
    </mxGraphModel>
  </diagram>
</mxfile>
